<?xml version="1.0" encoding="UTF-8" standalone="no"?>
<svg
   xmlns:dc="http://purl.org/dc/elements/1.1/"
   xmlns:cc="http://creativecommons.org/ns#"
   xmlns:rdf="http://www.w3.org/1999/02/22-rdf-syntax-ns#"
   xmlns:svg="http://www.w3.org/2000/svg"
   xmlns="http://www.w3.org/2000/svg"
   xmlns:sodipodi="http://sodipodi.sourceforge.net/DTD/sodipodi-0.dtd"
   xmlns:inkscape="http://www.inkscape.org/namespaces/inkscape"
   version="1.1"
   width="45"
   height="45"
   id="svg3005"
   inkscape:version="0.48.2 r9819"
   sodipodi:docname="trash.svg">
  <metadata
     id="metadata3023">
    <rdf:RDF>
      <cc:Work
         rdf:about="">
        <dc:format>image/svg+xml</dc:format>
        <dc:type
           rdf:resource="http://purl.org/dc/dcmitype/StillImage" />
        <dc:title />
      </cc:Work>
    </rdf:RDF>
  </metadata>
  <defs
     id="defs3021" />
  <sodipodi:namedview
     pagecolor="#ffffff"
     bordercolor="#666666"
     borderopacity="1"
     objecttolerance="10"
     gridtolerance="10"
     guidetolerance="10"
     inkscape:pageopacity="0"
     inkscape:pageshadow="2"
     inkscape:window-width="1920"
     inkscape:window-height="1018"
     id="namedview3019"
     showgrid="true"
     inkscape:zoom="11.488889"
     inkscape:cx="7.0067696"
     inkscape:cy="22.5"
     inkscape:window-x="-8"
     inkscape:window-y="-8"
     inkscape:window-maximized="1"
     inkscape:current-layer="svg3005">
    <inkscape:grid
       type="xygrid"
       id="grid3025" />
  </sodipodi:namedview>
  <path
     style="fill:none;stroke:#000000;stroke-width:2;stroke-linecap:butt;stroke-linejoin:miter;stroke-opacity:1;stroke-miterlimit:4;stroke-dasharray:none"
     d="m 7,10 3,27 25,0 3,-27 z"
     id="path3027"
     inkscape:connector-curvature="0" />
  <g
     id="g3809" />
  <path
     style="fill:#000000;fill-rule:evenodd;stroke:none;stroke-width:1.12500000000000000px;stroke-linecap:butt;stroke-linejoin:miter;stroke-opacity:1;fill-opacity:1"
     d="M 22.5,16 C 18.357864,16 15,19.357864 15,23.5 15,27.642136 18.357864,31 22.5,31 26.642136,31 30,27.642136 30,23.5 30,19.357864 26.642136,16 22.5,16 z m 0,3 c 0.693972,0 1.350528,0.156941 1.9375,0.4375 l -6,6 C 18.156941,24.850528 18,24.193972 18,23.5 18,21.014719 20.014719,19 22.5,19 z m 4.0625,2.5625 C 26.843059,22.149472 27,22.806028 27,23.5 27,25.985281 24.985281,28 22.5,28 21.806028,28 21.149472,27.843059 20.5625,27.5625 l 6,-6 z"
     id="path3801"
     inkscape:connector-curvature="0" />
</svg>
